<svg width="110" height="74" viewBox="0 0 110 74" fill="none" xmlns="http://www.w3.org/2000/svg">
<path fill-rule="evenodd" clip-rule="evenodd" d="M53.8048 47.0322C61.8221 46.9948 68.6032 43.4433 74.5367 38.1348C76.9383 36.0413 90.1827 21.7981 102.05 29.5366C103.922 28.4898 101.167 21.8355 93.8558 19.4429C89.0172 18.1718 84.2492 19.6299 79.2693 23.8168L65.7424 38.92C61.928 42.2097 57.9724 44.9387 53.8048 47.0322Z" fill="white"/>
<path fill-rule="evenodd" clip-rule="evenodd" d="M1.26746 3.85192C7.6954 8.56229 6.17669 22.5438 7.20092 33.6094C9.42598 51.4789 22.07 53.0209 30.9808 35.4873C42.0001 13.8047 42.0602 15.5905 42.1308 18.6186C42.0955 21.9831 40.856 35.0364 41.3538 37.2731C43.2257 45.6844 50.6425 46.9929 60.1784 37.3105C70.0676 26.544 76.3543 13.6091 88.7863 9.72121C93.6249 8.41278 102.666 9.2726 108.671 14.6185C109.342 11.4782 106.834 7.59037 100.477 3.32861C92.4594 -0.933147 84.866 -0.484555 77.1313 2.73045C72.6105 4.63703 64.5932 12.4502 53.4326 28.8991C52.1612 30.3197 51.7021 29.0611 52.0553 25.1233C52.7263 15.6278 52.0553 6.45361 50.7131 4.41266C48.3859 0.873642 44.3034 0.0563739 40.0065 3.81109C37.0881 6.05907 28.4521 26.6035 22.07 34.4693C19.4918 37.6469 19.0326 34.6562 18.6088 30.357C18.2556 27.7028 18.5382 20.6373 17.5493 9.4595C16.3131 2.9921 12.0043 0.150952 5.08191 1.30985C0.490521 2.10737 -0.780999 2.95471 1.26746 3.85192Z" fill="white"/>
<path fill-rule="evenodd" clip-rule="evenodd" d="M0 53.4484L4.26565 53.2282L8.73948 67.1775L13.1786 53.3749L17.0628 53.4117C19.8141 62.0505 21.1898 66.3699 21.1898 66.3699L25.2821 53.3015L29.5478 53.1547L23.1319 73.7116C20.6812 73.7361 19.4558 73.7484 19.4558 73.7484L14.9473 60.4598L10.3695 73.7484H6.65862" fill="white"/>
<path fill-rule="evenodd" clip-rule="evenodd" d="M37.7326 69.4534L35.8598 74.0054L31.1086 73.7484L38.9463 53.118L44.2525 53.2648L51.9863 73.6749L47.5124 73.9319L46.0559 69.5269L37.7326 69.4534ZM41.5821 57.6332L44.2872 65.0117L39.1891 64.9383L41.5821 57.6332Z" fill="white"/>
<path fill-rule="evenodd" clip-rule="evenodd" d="M94.1228 69.0915L92.25 73.6434L87.4988 73.3864L95.3365 52.7561L100.643 52.9029L108.376 73.3129L103.903 73.5699L102.446 69.1649L94.1228 69.0915ZM97.9723 57.2712L100.677 64.6497L95.5793 64.5763L97.9723 57.2712Z" fill="white"/>
<path fill-rule="evenodd" clip-rule="evenodd" d="M56.4168 53.0766L60.2387 53.0394L60.379 73.601L56.3817 73.6382L56.4168 53.0766Z" fill="white"/>
<path fill-rule="evenodd" clip-rule="evenodd" d="M74.7367 66.5902H71.5807L71.5461 73.6384H67.5231L67.5577 53.2283L76.0545 53.2649C79.7307 53.2282 82.297 54.8434 82.8519 59.4687C82.7825 62.8092 81.6381 64.7916 79.2798 65.8561C81.8462 71.0688 83.1062 73.6016 83.06 73.4548L78.3088 73.5649L74.7367 66.5902ZM71.5807 56.9725L71.6847 63.0295L76.1933 63.103C77.7886 62.589 78.6209 61.5244 78.4128 60.1662C78.5515 58.1839 77.2684 57.5966 76.1586 57.0827C75.465 57.0827 73.939 56.8991 71.5807 56.9725Z" fill="white"/>
</svg>
