<svg width="150" height="80" viewBox="0 0 150 80" fill="none" xmlns="http://www.w3.org/2000/svg">
<g clip-path="url(#clip0_58_458)">
<path fill-rule="evenodd" clip-rule="evenodd" d="M69.9871 44.034C77.4076 43.9993 83.6839 40.7104 89.1758 35.7942C91.3986 33.8555 103.657 20.6651 114.641 27.8315C116.373 26.8622 113.824 20.6996 107.057 18.4839C102.578 17.3068 98.1653 18.6571 93.5561 22.5346L81.0361 36.5213C77.5057 39.568 73.8445 42.0952 69.9871 44.034Z" fill="#FF802E"/>
<path fill-rule="evenodd" clip-rule="evenodd" d="M21.3605 4.0453C27.3099 8.4075 25.9043 21.3556 26.8523 31.6033C28.9117 48.1519 40.6146 49.58 48.862 33.3423C59.0611 13.2624 59.1167 14.9162 59.1821 17.7205C59.1494 20.8363 58.0022 32.9248 58.4629 34.9961C60.1955 42.7858 67.0602 43.9975 75.8863 35.0308C85.0393 25.0601 90.8581 13.0813 102.365 9.48076C106.843 8.26904 115.212 9.06531 120.769 14.0161C121.39 11.1079 119.069 7.50742 113.185 3.56067C105.764 -0.386083 98.7362 0.0293516 91.5773 3.00672C87.393 4.77238 79.9725 12.0081 69.6426 27.2411C68.4658 28.5567 68.0409 27.3911 68.3678 23.7444C68.9889 14.9508 68.3678 6.45469 67.1256 4.56459C64.9716 1.28716 61.1929 0.530298 57.2159 4.00748C54.5147 6.0893 46.5216 25.1152 40.6146 32.3996C38.2282 35.3423 37.8032 32.5727 37.411 28.5913C37.0841 26.1332 37.3456 19.59 36.4303 9.23839C35.2862 3.24903 31.2981 0.617885 24.891 1.69112C20.6414 2.4297 19.4645 3.21441 21.3605 4.0453Z" fill="#FF802E"/>
</g>
<path fill-rule="evenodd" clip-rule="evenodd" d="M0 50.8605L5.90393 50.5557L12.096 69.8624L18.24 50.7588L23.616 50.8097C27.424 62.7663 29.3281 68.7447 29.3281 68.7447L34.9921 50.6573L40.8961 50.454L32.0161 78.9061C28.624 78.94 26.9281 78.957 26.9281 78.957L20.6881 60.5648L14.352 78.957H9.21596" fill="#3A697E"/>
<path fill-rule="evenodd" clip-rule="evenodd" d="M52.2244 73.0124L49.6323 79.3126L43.0563 78.9569L53.9043 50.4032L61.2483 50.6063L71.9524 78.8552L65.7603 79.2109L63.7444 73.1141L52.2244 73.0124ZM57.5523 56.6524L61.2964 66.8647L54.2403 66.7632L57.5523 56.6524Z" fill="#3A697E"/>
<path fill-rule="evenodd" clip-rule="evenodd" d="M130.272 72.5115L127.68 78.8118L121.104 78.4561L131.952 49.9023L139.296 50.1055L150 78.3544L143.808 78.71L141.792 72.6132L130.272 72.5115ZM135.6 56.1516L139.344 66.3639L132.288 66.2623L135.6 56.1516Z" fill="#3A697E"/>
<path fill-rule="evenodd" clip-rule="evenodd" d="M78.0844 50.346L83.3743 50.2946L83.5684 78.7531L78.0358 78.8045L78.0844 50.346Z" fill="#3A697E"/>
<path fill-rule="evenodd" clip-rule="evenodd" d="M103.44 69.0497H99.0724L99.0245 78.8048H93.4564L93.5043 50.5559L105.264 50.6066C110.352 50.5558 113.904 52.7913 114.672 59.1931C114.576 63.8165 112.992 66.5602 109.728 68.0337C113.28 75.2483 115.024 78.7539 114.96 78.5507L108.384 78.7031L103.44 69.0497ZM99.0724 55.7382L99.2164 64.1214L105.456 64.2231C107.664 63.5118 108.816 62.0383 108.528 60.1584C108.72 57.4148 106.944 56.6019 105.408 55.8906C104.448 55.8906 102.336 55.6366 99.0724 55.7382Z" fill="#3A697E"/>
<defs>
<clipPath id="clip0_58_458">
<rect width="100.937" height="44.5514" fill="white" transform="translate(20.1874 0.478149)"/>
</clipPath>
</defs>
</svg>
